<?xml version="1.0" encoding="utf-8"?>
<!-- Generator: Adobe Illustrator 21.0.0, SVG Export Plug-In . SVG Version: 6.00 Build 0)  -->
<svg version="1.1" id="Layer_1" xmlns="http://www.w3.org/2000/svg" xmlns:xlink="http://www.w3.org/1999/xlink" x="0px" y="0px"
	 viewBox="0 0 512 512" style="enable-background:new 0 0 512 512;" xml:space="preserve">
<style type="text/css">
	.st0{fill:#B8B8B8;}
</style>
<g>
	<path class="st0" d="M512,176c0,32-7.8,61.5-23.5,88.5s-37,48.3-64,64S368,352,336,352c-11.3,0-22.3-1-33-3l-24,27
		c-4.7,5.3-10.7,8-18,8h-37v40c0,6.7-2.3,12.3-7,17s-10.3,7-17,7h-40v40c0,6.7-2.3,12.3-7,17s-10.3,7-17,7H24c-6.7,0-12.3-2.3-17-7
		s-7-10.3-7-17v-78c0-6.7,2.3-12.3,7-17l162-162c-6-18-9-36.3-9-55c0-32,7.8-61.5,23.5-88.5s37-48.3,64-64S304,0,336,0
		s61.5,7.8,88.5,23.5s48.3,37,64,64S512,144,512,176z M336,128c0,13.3,4.7,24.7,14,34s20.7,14,34,14s24.7-4.7,34-14s14-20.7,14-34
		s-4.7-24.7-14-34s-20.7-14-34-14s-24.7,4.7-34,14S336,114.7,336,128z"/>
</g>
</svg>
