<?xml version="1.0" encoding="utf-8"?>
<!-- Generator: Adobe Illustrator 21.0.0, SVG Export Plug-In . SVG Version: 6.00 Build 0)  -->
<svg version="1.1" id="Capa_1" xmlns="http://www.w3.org/2000/svg" xmlns:xlink="http://www.w3.org/1999/xlink" x="0px" y="0px"
	 viewBox="0 0 512 512" style="enable-background:new 0 0 512 512;" xml:space="preserve">
<style type="text/css">
	.st0{fill:#B8B8B8;}
</style>
<g>
	<path class="st0" d="M512,100.6c0,15-4.7,29.4-14,43.1c-9.3,13.7-21,25.4-34.9,35.1c-71.6,49.7-116.2,80.7-133.7,92.9
		c-1.9,1.3-6,4.2-12.1,8.7c-6.2,4.5-11.3,8.1-15.4,10.9c-4.1,2.8-9,5.9-14.9,9.3c-5.8,3.4-11.3,6-16.4,7.7
		c-5.1,1.7-9.9,2.6-14.3,2.6H256h-0.3c-4.4,0-9.1-0.9-14.3-2.6c-5.1-1.7-10.6-4.3-16.4-7.7c-5.8-3.4-10.8-6.5-14.9-9.3
		c-4.1-2.8-9.2-6.4-15.4-10.9c-6.2-4.5-10.2-7.4-12.1-8.7c-17.3-12.2-42.3-29.6-74.9-52.1c-32.6-22.6-52.1-36.1-58.6-40.7
		c-11.8-8-23-19-33.4-33c-10.5-14-15.7-27-15.7-39C0,92,4,79.6,11.9,69.7c7.9-9.9,19.2-14.9,33.9-14.9h420.6
		c12.4,0,23.1,4.5,32.1,13.4C507.5,77.2,512,88,512,100.6z M512,184.6v226.9c0,12.6-4.5,23.3-13.4,32.3c-9,9-19.7,13.4-32.3,13.4
		H45.7c-12.6,0-23.3-4.5-32.3-13.4C4.5,434.8,0,424,0,411.4V184.6c8.4,9.3,18,17.6,28.9,24.9c69,46.9,116.3,79.7,142,98.6
		c10.9,8,19.7,14.2,26.4,18.7c6.8,4.5,15.8,9,27,13.7c11.2,4.7,21.7,7,31.4,7h0.3h0.3c9.7,0,20.2-2.3,31.4-7
		c11.2-4.7,20.2-9.2,27-13.7c6.8-4.5,15.6-10.7,26.4-18.7c32.4-23.4,79.8-56.3,142.3-98.6C494.3,202,503.8,193.7,512,184.6z"/>
</g>
</svg>
