<?xml version="1.0" encoding="utf-8"?>
<!-- Generator: Adobe Illustrator 21.0.0, SVG Export Plug-In . SVG Version: 6.00 Build 0)  -->
<svg version="1.1" id="Layer_1" xmlns="http://www.w3.org/2000/svg" xmlns:xlink="http://www.w3.org/1999/xlink" x="0px" y="0px"
	 viewBox="0 0 332.7 44.1" style="enable-background:new 0 0 332.7 44.1;" xml:space="preserve">
<style type="text/css">
	.st0{fill:#FFFFFF;}
	.st1{fill:#00D0A5;}
</style>
<path class="st0" d="M24.5,24H1.6C0.5,24,0,25,0,25.6s0.5,1.6,1.6,1.6H24c1.1,0,1.6-0.5,1.6-1.6C25.6,24.5,25,24,24.5,24z"/>
<path class="st0" d="M25,10.9h9.3c1.1,0,1.6-0.5,1.6-1.6s-0.5-1.6-1.6-1.6H25c-1.1,0-1.6,0.5-1.6,1.6S24,10.9,25,10.9z"/>
<path class="st0" d="M76.2,13.6C74,13.6,73,12,73,9.8c0.5-3.8,1.6-9.3,1.6-9.3l0,0l0,0c-0.5,0-0.5,0-1.1,0L34.8,0
	c-0.5,0-1.6,0.5-1.6,1.6s0.5,1.6,1.6,1.6h18c0.5,0.5,1.1,1.1,1.1,2.2s-0.5,2.2-1.6,2.2h-12c-1.1,0-1.6,0.5-1.6,1.6s0.5,1.6,1.6,1.6
	H43l0,0h2.2c1.1,0,2.2,1.1,2.2,2.2s-0.5,1.6-1.6,2.2H14.2c-1.1,0-1.6,0.5-1.6,1.6c0,1.1,0.5,1.6,1.6,1.6h39.2c1.1,0,2.2,1.1,2.2,2.2
	c0,1.1-0.5,2.2-1.6,2.2H31.6c-1.1,0-1.6,0.5-1.6,1.6c0,1.1,0.5,1.6,1.6,1.6h12c1.1,0.5,1.6,1.1,1.6,2.2c0,1.1-1.1,2.2-2.2,2.2h-8.7
	c-1.1,0-2.2,1.1-2.2,2.2c0,1.1,1.1,2.2,2.2,2.2h9.8h7.1c1.1,0,2.2,1.1,2.2,2.2s-0.5,2.2-1.6,2.2H28.9c-0.5,1.6-1.6,2.2-1.6,3.3
	c0,1.1,1.1,1.6,1.6,1.6h24.5h9.3h12.5c3.3,0,3.8-2.7,4.4-5.4c0.5-5.4,2.7-17.4,4.4-25.6C83.8,13.6,79.5,13.6,76.2,13.6z"/>
<path class="st1" d="M74.6,0L74.6,0L74.6,0c0,0.5-1.1,6-1.6,9.3c-0.5,2.2,1.1,3.8,3.3,3.8c3.3,0,8.2,0,8.2,0L74.6,0z"/>
<path class="st0" d="M126.3,26.7c0,7.6-3.8,11.4-10.9,11.4S104,34.3,104,26.7v-9.8c0-7.6,3.8-11.4,11.4-11.4c4.9,0,8.2,1.6,10.3,5.4
	c0,0.5,0,1.1-0.5,1.1l-1.6,1.1c-0.5,0.5-1.1,0-1.1-0.5c-1.6-2.7-3.8-3.8-7.1-3.8c-4.9,0-7.1,2.7-7.1,8.2v8.7c0,5.4,2.2,8.2,7.1,8.2
	s7.1-2.7,7.1-8.2v-1.1h-6c-0.5,0-1.1-0.5-1.1-1.1v-1.6c0-0.5,0.5-1.1,1.1-1.1h9.3c0.5,0,1.1,0.5,1.1,1.1v4.9H126.3z"/>
<path class="st0" d="M147,26.7c0,0.5,0,0.5-0.5,0.5h-12.5v1.6c0,4.4,1.6,6,6,6c1.6,0,3.3-0.5,4.9-2.2c0.5-0.5,1.1-0.5,1.1,0l1.1,1.1
	c0.5,0.5,0.5,1.1,0,1.1c-2.2,1.6-4.4,2.7-7.1,2.7c-6.5,0-9.8-3.3-9.8-9.3v-5.4c0-6,3.3-9.3,8.7-9.3c6,0,8.7,3.3,8.7,9.3v3.8
	C147.5,26.7,147,26.7,147,26.7z M143.2,24L143.2,24c0-4.9-1.6-6.5-4.9-6.5c-3.3,0-4.9,1.6-4.9,6v1.1L143.2,24L143.2,24z"/>
<path class="st0" d="M150.3,22.3c0-6,2.7-8.7,8.2-8.7c2.2,0,3.8,0.5,5.4,1.6c0.5,0.5,0.5,0.5,0.5,1.1l-0.5,1.6
	c-0.5,0.5-0.5,0.5-1.1,0c-1.1-0.5-2.2-1.1-3.3-1.1c-2.7,0-4.4,1.6-4.4,5.4V37c0,0.5-0.5,1.1-1.1,1.1h-2.2c-0.5,0-1.1-0.5-1.1-1.1
	L150.3,22.3L150.3,22.3z"/>
<path class="st0" d="M181.9,22.9v6.5c0,6-3.3,9.3-9.3,9.3c-5.4,0-8.7-2.7-8.7-7.1s3.3-7.1,8.7-7.1h4.9v-1.1c0-4.4-1.6-6-5.4-6
	c-1.6,0-3.3,0.5-4.9,1.6c-0.5,0.5-1.1,0.5-1.1,0l-1.1-1.6c-0.5-0.5-0.5-1.1,0-1.1c2.2-1.6,4.4-2.7,7.1-2.7
	C179.1,13.6,181.9,16.9,181.9,22.9z M178,28.9v-1.6h-4.9c-3.3,0-4.9,1.1-4.9,3.8s1.6,3.8,4.4,3.8C176.4,34.8,178,33.2,178,28.9z"/>
<g>
	<path class="st1" d="M202,9.3c2.7,0,4.9,1.6,6.5,3.3c0,0.5,0.5,1.1,1.1,0.5l1.6-1.1c0.5,0,1.1-0.5,0.5-1.1
		c-1.6-3.8-4.9-5.4-9.8-5.4c-7.1,0-10.9,3.8-10.9,11.4v9.8c0,7.6,3.8,11.4,10.9,11.4c4.4,0,7.6-1.6,9.8-5.4c0.5-0.5,0-0.5-0.5-1.1
		l-1.6-1.1c-0.5,0-0.5,0-1.1,0.5c-1.6,2.2-3.8,3.8-6.5,3.3c-4.9,0-7.1-2.7-7.1-8.2v-8.7C194.9,12,197.6,9.3,202,9.3z"/>
	<path class="st1" d="M223.2,13.6c-5.4,0-8.7,3.3-8.7,9.3v5.4c0,6,3.3,9.3,9.8,9.3c2.7,0,4.9-1.1,7.1-2.7c0.5,0,0.5-0.5,0-1.1
		l-1.1-1.1c0-0.5-0.5-0.5-1.1,0c-1.6,1.6-3.3,2.2-4.9,2.2c-4.4,0-6-1.6-6-6v-1.6h12.5c0.5,0,1.1,0,1.1-0.5v-3.8
		C231.9,16.9,229.2,13.6,223.2,13.6z M228.1,24L228.1,24l-9.8,0.5v-1.1c0-4.4,1.6-6,4.9-6S228.1,19.1,228.1,24
		C228.1,23.4,228.1,24,228.1,24z"/>
	<path class="st1" d="M260.3,14.2h-6.5V8.7c0-0.5-0.5-1.1-1.1-1.1h-2.2c-0.5,0-1.1,0.5-1.1,1.1v5.4h-2.2c-1.1-0.5-2.2-0.5-3.3-0.5
		c-5.4,0-8.2,2.7-8.2,8.7V37c0,0.5,0.5,1.1,1.1,1.1h2.2c0.5,0,0.5-0.5,1.6-1.1V22.3c0-3.8,1.6-5.4,4.4-5.4h0.5
		c0,0.5,0.5,1.1,1.1,1.1h2.7V31c0,4.9,2.2,7.6,7.1,7.6c1.6,0,3.3-0.5,4.4-1.1c0.5,0,0.5-0.5,0.5-1.1l-0.5-1.1c0-0.5-0.5-1.1-1.1-0.5
		c-0.5,0.5-1.1,0.5-2.2,0.5c-2.7,0-3.8-1.6-3.8-4.4V18h6.5c0.5,0,1.1-0.5,1.1-1.1v-1.6C261.3,14.7,260.8,14.2,260.3,14.2z"/>
	<path class="st1" d="M266.2,4.9c-1.6,0-2.7,1.1-2.7,2.7c0,1.1,1.1,2.2,2.7,2.7c1.6,0,2.7-1.1,2.7-2.7S267.9,4.9,266.2,4.9z"/>
	<path class="st1" d="M267.3,14.2h-2.2c-0.5,0-1.1,0.5-1.1,1.1V37c0,0.5,0.5,1.1,1.1,1.1h2.2c0.5,0,1.1-0.5,1.1-1.1V15.2
		C268.4,14.7,267.9,14.2,267.3,14.2z"/>
	<path class="st1" d="M289.7,4.4h-2.2c-0.5,0-1.1,0.5-1.1,1.1v10.3c-1.1-1.6-2.7-2.2-5.4-2.2c-5.4,0-8.2,3.3-8.2,9.3v6.5
		c0,6,2.7,9.3,8.7,9.3s9.3-3.3,9.3-9.3v-24C290.7,4.9,290.2,4.4,289.7,4.4z M286.4,29.4c0,3.8-1.6,6-4.9,6c-3.3,0-4.9-2.2-4.9-6v-6
		c0-4.4,1.6-6,4.9-6c3.3,0,4.9,2.2,4.9,6V29.4z"/>
	<path class="st1" d="M296.7,10.3h1.1c0,0,0.5,0,0.5-0.5c0.5-1.1,1.1-1.6,1.6-1.6c0.5,0,1.1,0.5,1.6,1.1c1.1,1.1,2.2,1.6,3.3,1.6
		c2.2,0,3.8-1.6,4.4-4.9c0-0.5,0-0.5-0.5-0.5h-1.1c0,0-0.5,0-0.5,0.5c-0.5,1.1-1.1,1.6-1.6,1.6c-0.5,0-1.1-0.5-1.6-1.1
		c-1.1-1.1-2.2-1.6-3.3-1.6c-2.2,0-3.8,1.6-4.4,4.9C296.2,10.3,296.2,10.3,296.7,10.3z"/>
	<path class="st1" d="M301.6,13.6c-2.7,0-4.9,1.1-7.1,2.7c-0.5,0-0.5,0.5,0,1.1l1.1,1.6c0,0.5,0.5,0.5,1.1,0
		c1.6-1.1,3.3-1.6,4.9-1.6c3.8,0,5.4,1.6,5.4,6v1.1h-4.9c-5.4,0-8.7,2.7-8.7,7.1s3.3,7.1,8.7,7.1c6,0,9.3-3.3,9.3-9.3v-6.5
		C311.4,16.9,308.2,13.6,301.6,13.6z M307.6,28.9c0,4.4-1.6,6-5.4,6c-2.7,0-4.4-1.1-4.4-3.8s1.6-3.8,4.9-3.8h4.9V28.9z"/>
	<path class="st1" d="M323.4,13.6c-5.4,0-8.7,3.3-8.7,9.3v6.5c0,5.4,2.7,8.7,8.7,8.7s9.3-2.7,9.3-8.7v-6.5
		C332.7,16.9,329.4,13.6,323.4,13.6z M328.9,29.4c0,3.8-1.6,6-4.9,6s-4.9-2.2-4.9-6v-6c0-4.4,1.6-6,4.9-6s4.9,1.6,4.9,6V29.4z"/>
</g>
<path class="st1" d="M75.7,22.3H62.6c-0.5,0-1.6-0.5-1.6-1.6l0,0c0-0.5,0.5-1.6,1.6-1.6h13.1c0.5,0,1.6,0.5,1.6,1.6l0,0
	C76.8,21.8,76.2,22.3,75.7,22.3z"/>
<path class="st1" d="M74,26.7H61c-0.5,0-1.6-0.5-1.6-1.6l0,0c0-0.5,0.5-1.6,1.6-1.6H74c0.5,0,1.6,0.5,1.6,1.6l0,0
	C75.7,26.1,75.1,26.7,74,26.7z"/>
<path class="st1" d="M73.5,31.6H60.4c-0.5,0-1.6-0.5-1.6-1.6l0,0c0-0.5,0.5-1.6,1.6-1.6h13.1c0.5,0,1.6,0.5,1.6,1.6l0,0
	C75.1,31,74.6,31.6,73.5,31.6z"/>
</svg>
