<?xml version="1.0" encoding="utf-8"?>
<!-- Generator: Adobe Illustrator 21.0.0, SVG Export Plug-In . SVG Version: 6.00 Build 0)  -->
<svg version="1.1" id="Capa_1" xmlns="http://www.w3.org/2000/svg" xmlns:xlink="http://www.w3.org/1999/xlink" x="0px" y="0px"
	 viewBox="0 0 512 512" style="enable-background:new 0 0 512 512;" xml:space="preserve">
<style type="text/css">
	.st0{fill:#B8B8B8;}
</style>
<g>
	<path class="st0" d="M490.7,425.7c0,26.7-8.1,47.7-24.3,63.2c-16.2,15.4-37.8,23.2-64.7,23.2H110.3c-26.9,0-48.4-7.7-64.7-23.2
		c-16.2-15.4-24.3-36.5-24.3-63.2c0-11.8,0.4-23.3,1.2-34.5c0.8-11.2,2.3-23.3,4.7-36.3c2.3-13,5.3-25.1,8.8-36.2
		c3.6-11.1,8.3-21.9,14.3-32.5c6-10.6,12.9-19.6,20.7-27c7.8-7.4,17.3-13.4,28.5-17.8c11.2-4.4,23.6-6.7,37.2-6.7
		c2,0,6.7,2.4,14,7.2c7.3,4.8,15.6,10.1,24.8,16c9.2,5.9,21.2,11.2,36,16c14.8,4.8,29.6,7.2,44.5,7.2c14.9,0,29.7-2.4,44.5-7.2
		c14.8-4.8,26.8-10.1,36-16c9.2-5.9,17.5-11.2,24.8-16c7.3-4.8,12-7.2,14-7.2c13.6,0,25.9,2.2,37.2,6.7
		c11.2,4.5,20.7,10.4,28.5,17.8c7.8,7.4,14.7,16.4,20.7,27c6,10.6,10.8,21.4,14.3,32.5c3.6,11.1,6.5,23.2,8.8,36.2
		c2.3,13,3.9,25.1,4.7,36.3C490.3,402.4,490.7,413.9,490.7,425.7z M346.5,37.5c25,25,37.5,55.2,37.5,90.5s-12.5,65.5-37.5,90.5
		c-25,25-55.2,37.5-90.5,37.5c-35.3,0-65.5-12.5-90.5-37.5c-25-25-37.5-55.2-37.5-90.5s12.5-65.5,37.5-90.5
		C190.5,12.5,220.7,0,256,0C291.3,0,321.5,12.5,346.5,37.5z"/>
</g>
</svg>
