<?xml version="1.0" encoding="UTF-8"?>
<svg width="14px" height="14px" viewBox="0 0 14 14" version="1.1" xmlns="http://www.w3.org/2000/svg" xmlns:xlink="http://www.w3.org/1999/xlink">
    <!-- Generator: Sketch 41.2 (35397) - http://www.bohemiancoding.com/sketch -->
    <title>ic_tooltip</title>
    <desc>Created with Sketch.</desc>
    <defs></defs>
    <g id="Page-1" stroke="none" stroke-width="1" fill="none" fill-rule="evenodd">
        <g id="ic_tooltip" fill="#FFFFFF">
            <g id="tooltip">
                <g id="Page-1">
                    <g id="Final---Goal-1-emergency">
                        <g id="tooltip">
                            <path d="M7,14 C10.8659932,14 14,10.8659932 14,7 C14,3.13400675 10.8659932,0 7,0 C3.13400675,0 0,3.13400675 0,7 C0,10.8659932 3.13400675,14 7,14 Z M7.99225,8.827 L6.13025,8.827 L6.13025,7.90825 C6.13025,7.57341499 6.17312457,7.3222925 6.258875,7.154875 C6.34462543,6.9874575 6.52633194,6.76083476 6.804,6.475 L7.637,5.6175 C7.75950061,5.47049926 7.82075,5.28062616 7.82075,5.047875 C7.82075,4.81512384 7.75541732,4.62116744 7.62475,4.466 C7.49408268,4.31083256 7.32258439,4.23325 7.11025,4.23325 C6.8979156,4.23325 6.72029238,4.32512408 6.577375,4.508875 C6.43445762,4.69262592 6.34666683,4.93558182 6.314,5.23775 L4.36625,5.23775 C4.45608378,4.42107925 4.75416413,3.78000233 5.2605,3.3145 C5.76683587,2.84899767 6.40178785,2.61625 7.165375,2.61625 C7.92896215,2.61625 8.54962261,2.82449792 9.027375,3.241 C9.50512739,3.65750208 9.744,4.23324633 9.744,4.96825 C9.744,5.2949183 9.70316707,5.5378742 9.6215,5.697125 C9.53983292,5.8563758 9.48266683,5.97070799 9.45,6.040125 C9.41733317,6.10954201 9.34179226,6.21366597 9.223375,6.3525 C9.10495774,6.49133403 9.02533354,6.58116646 8.9845,6.622 C8.78849902,6.81800098 8.60270921,7.00174914 8.427125,7.17325 C8.25154079,7.34475086 8.13516695,7.48562445 8.078,7.595875 C8.02083305,7.70612555 7.99225,7.8714989 7.99225,8.092 L7.99225,8.827 Z M6.00775,10.395 C6.00775,10.0928318 6.11187396,9.83762604 6.320125,9.629375 C6.52837604,9.42112396 6.78358182,9.317 7.08575,9.317 C7.38791818,9.317 7.64312396,9.42112396 7.851375,9.629375 C8.05962604,9.83762604 8.16375,10.0928318 8.16375,10.395 C8.16375,10.6971682 8.05962604,10.952374 7.851375,11.160625 C7.64312396,11.368876 7.38791818,11.473 7.08575,11.473 C6.78358182,11.473 6.52837604,11.368876 6.320125,11.160625 C6.11187396,10.952374 6.00775,10.6971682 6.00775,10.395 Z" id="Combined-Shape"></path>
                        </g>
                    </g>
                </g>
            </g>
        </g>
    </g>
</svg>